REM DIRINDEX 1\2\5,1\2\6,1\2\7,1\2\8,1\3\9,1\3\10,1\3\11,1\4\12,1\4\13,1\4\14,1\4\15,1\4\16
REM DIRNAME cjc034,folder01,folder02,folder03,folder04,folder05,folder06,folder07,folder08,folder09,folder10,folder11,folder12,folder13,folder14,folder15
TITLE ""
FILE "1200_2_sec02_0446_0461.mp3" MP3
  TRACK 01 AUDIO
    TITLE "0:"
    INDEX 01 00:00:00
  TRACK 02 AUDIO
    TITLE "10:cjc034_00913"
    INDEX 01 00:00:15
  TRACK 03 AUDIO
    TITLE "0:"
    INDEX 01 00:01:19
  TRACK 04 AUDIO
    TITLE "9:cjc034_00914"
    INDEX 01 00:01:28
  TRACK 05 AUDIO
    TITLE "0:"
    INDEX 01 00:02:36
  TRACK 06 AUDIO
    TITLE "10:cjc034_00915"
    INDEX 01 00:03:19
  TRACK 07 AUDIO
    TITLE "0:"
    INDEX 01 00:05:69
  TRACK 08 AUDIO
    TITLE "9:cjc034_00916"
    INDEX 01 00:05:73
  TRACK 09 AUDIO
    TITLE "0:"
    INDEX 01 00:07:07
  TRACK 10 AUDIO
    TITLE "10:cjc034_00917"
    INDEX 01 00:07:66
  TRACK 11 AUDIO
    TITLE "0:"
    INDEX 01 00:10:14
  TRACK 12 AUDIO
    TITLE "9:cjc034_00918"
    INDEX 01 00:10:19
  TRACK 13 AUDIO
    TITLE "0:"
    INDEX 01 00:11:11
  TRACK 14 AUDIO
    TITLE "10:cjc034_00919"
    INDEX 01 00:11:70
  TRACK 15 AUDIO
    TITLE "0:"
    INDEX 01 00:12:73
  TRACK 16 AUDIO
    TITLE "9:cjc034_00920"
    INDEX 01 00:13:06
  TRACK 17 AUDIO
    TITLE "0:"
    INDEX 01 00:14:06
  TRACK 18 AUDIO
    TITLE "10:cjc034_00921"
    INDEX 01 00:14:62
  TRACK 19 AUDIO
    TITLE "0:"
    INDEX 01 00:17:37
  TRACK 20 AUDIO
    TITLE "9:cjc034_00922"
    INDEX 01 00:17:41
  TRACK 21 AUDIO
    TITLE "0:"
    INDEX 01 00:18:58
  TRACK 22 AUDIO
    TITLE "10:cjc034_00923"
    INDEX 01 00:19:40
  TRACK 23 AUDIO
    TITLE "0:"
    INDEX 01 00:20:49
  TRACK 24 AUDIO
    TITLE "9:cjc034_00924"
    INDEX 01 00:20:51
  TRACK 25 AUDIO
    TITLE "0:"
    INDEX 01 00:21:57
  TRACK 26 AUDIO
    TITLE "10:cjc034_00925"
    INDEX 01 00:22:38
  TRACK 27 AUDIO
    TITLE "0:"
    INDEX 01 00:23:59
  TRACK 28 AUDIO
    TITLE "9:cjc034_00926"
    INDEX 01 00:23:65
  TRACK 29 AUDIO
    TITLE "0:"
    INDEX 01 00:25:15
  TRACK 30 AUDIO
    TITLE "10:cjc034_00927"
    INDEX 01 00:25:70
  TRACK 31 AUDIO
    TITLE "0:"
    INDEX 01 00:27:20
  TRACK 32 AUDIO
    TITLE "9:cjc034_00928"
    INDEX 01 00:27:28
  TRACK 33 AUDIO
    TITLE "0:"
    INDEX 01 00:28:49
  TRACK 34 AUDIO
    TITLE "10:cjc034_00929"
    INDEX 01 00:29:25
  TRACK 35 AUDIO
    TITLE "0:"
    INDEX 01 00:30:54
  TRACK 36 AUDIO
    TITLE "9:cjc034_00930"
    INDEX 01 00:30:59
  TRACK 37 AUDIO
    TITLE "0:"
    INDEX 01 00:32:07
  TRACK 38 AUDIO
    TITLE "10:cjc034_00931"
    INDEX 01 00:32:62
  TRACK 39 AUDIO
    TITLE "0:"
    INDEX 01 00:34:14
  TRACK 40 AUDIO
    TITLE "9:cjc034_00932"
    INDEX 01 00:34:18
  TRACK 41 AUDIO
    TITLE "0:"
    INDEX 01 00:35:37
  TRACK 42 AUDIO
    TITLE "10:cjc034_00933"
    INDEX 01 00:36:15
  TRACK 43 AUDIO
    TITLE "0:"
    INDEX 01 00:39:03
  TRACK 44 AUDIO
    TITLE "9:cjc034_00934"
    INDEX 01 00:39:07
  TRACK 45 AUDIO
    TITLE "0:"
    INDEX 01 00:40:09
  TRACK 46 AUDIO
    TITLE "10:cjc034_00935"
    INDEX 01 00:40:62
  TRACK 47 AUDIO
    TITLE "0:"
    INDEX 01 00:42:31
  TRACK 48 AUDIO
    TITLE "9:cjc034_00936"
    INDEX 01 00:42:41
  TRACK 49 AUDIO
    TITLE "0:"
    INDEX 01 00:43:52
  TRACK 50 AUDIO
    TITLE "10:cjc034_00937"
    INDEX 01 00:44:32
  TRACK 51 AUDIO
    TITLE "0:"
    INDEX 01 00:45:30
  TRACK 52 AUDIO
    TITLE "9:cjc034_00938"
    INDEX 01 00:45:33
  TRACK 53 AUDIO
    TITLE "0:"
    INDEX 01 00:46:27
  TRACK 54 AUDIO
    TITLE "10:cjc034_00939"
    INDEX 01 00:47:11
  TRACK 55 AUDIO
    TITLE "0:"
    INDEX 01 00:48:30
  TRACK 56 AUDIO
    TITLE "9:cjc034_00940"
    INDEX 01 00:48:38
  TRACK 57 AUDIO
    TITLE "0:"
    INDEX 01 00:49:39
  TRACK 58 AUDIO
    TITLE "10:cjc034_00941"
    INDEX 01 00:50:21
  TRACK 59 AUDIO
    TITLE "0:"
    INDEX 01 00:51:54
  TRACK 60 AUDIO
    TITLE "9:cjc034_00942"
    INDEX 01 00:51:56
  TRACK 61 AUDIO
    TITLE "0:"
    INDEX 01 00:52:57
  TRACK 62 AUDIO
    TITLE "10:cjc034_00943"
    INDEX 01 00:53:39
  TRACK 63 AUDIO
    TITLE "0:"
    INDEX 01 00:56:04
  TRACK 64 AUDIO
    TITLE "9:cjc034_00944"
    INDEX 01 00:56:06
  TRACK 65 AUDIO
    TITLE "0:"
    INDEX 01 00:57:11
